<svg width="224" height="298" viewBox="0 0 224 298" fill="none" xmlns="http://www.w3.org/2000/svg">
<path d="M92.5757 71.6235C93.3064 71.8743 93.5719 72.3935 93.7332 73.0412C95.0819 78.4548 96.4447 83.8648 97.812 89.2737C97.9393 89.7771 97.9924 90.3136 98.3888 90.8688C98.6988 87.7793 98.9967 84.8086 99.295 81.838C99.6773 78.0314 100.059 74.2247 100.443 70.4182C100.77 67.1726 101.099 63.9271 101.429 60.6818C101.765 57.3782 102.11 54.0756 102.439 50.7713C102.765 47.4959 103.076 44.2191 103.394 40.9429C103.454 40.3232 103.515 39.7036 103.576 39.084C103.674 38.1025 104.119 37.6331 105.001 37.5785C106.136 37.5083 106.654 37.8557 106.826 38.9292C107.109 40.6852 107.339 42.4497 107.587 44.2112C108.207 48.6152 108.818 53.0204 109.444 57.4237C110.19 62.6796 110.95 67.9335 111.698 73.1892C112.016 75.4204 112.314 77.6543 112.628 79.886C112.66 80.1153 112.698 80.3553 112.9 80.5413C113.285 80.4736 113.35 80.1107 113.503 79.8479C115.679 76.0973 117.851 72.3447 120.012 68.5854C120.422 67.8734 120.907 67.2914 121.814 67.3922C122.723 67.4934 123.062 68.1847 123.315 68.9567C124.128 71.4378 124.977 73.9072 125.762 76.3971C125.989 77.1186 126.356 77.3554 127.107 77.3502C131.771 77.3183 136.436 77.3335 141.101 77.3354C141.427 77.3355 141.76 77.3179 142.079 77.3725C142.816 77.4989 143.349 78.1687 143.33 78.8901C143.311 79.6181 142.746 80.208 141.976 80.2945C141.799 80.3142 141.62 80.3095 141.441 80.3094C135.975 80.3088 130.508 80.2944 125.041 80.3197C124.195 80.3236 123.746 80.0503 123.497 79.2129C122.947 77.3647 122.308 75.5428 121.694 73.714C121.602 73.439 121.577 73.1235 121.306 72.9056C120.864 72.9239 120.784 73.3364 120.622 73.6172C118.452 77.3699 116.289 81.127 114.143 84.8933C113.633 85.7883 113.099 86.5468 111.883 86.3952C110.939 86.2775 110.477 85.9302 110.339 84.9876C109.684 80.4973 109.036 76.0059 108.396 71.5134C107.644 66.2282 106.902 60.9414 106.157 55.6552C105.984 54.4341 105.814 53.2127 105.612 51.772C105.157 52.4283 105.19 52.969 105.139 53.4622C104.589 58.834 104.057 64.2075 103.53 69.5817C103.032 74.6602 102.554 79.7406 102.054 84.819C101.584 89.6008 101.1 94.3813 100.617 99.1619C100.507 100.261 100.089 100.742 99.2206 100.805C97.9687 100.896 97.5881 100.633 97.2721 99.3856C95.4577 92.2239 93.6502 85.0604 91.8429 77.8969C91.7644 77.5855 91.7372 77.256 91.3905 76.9427C90.807 77.575 90.4227 78.3147 90.094 79.0407C89.6339 80.0568 88.9657 80.3454 87.8678 80.3332C82.5501 80.2739 77.2314 80.3078 71.9131 80.3081C71.438 80.3081 62.6312 80.3081 62.6312 80.3081L62.6311 77.3664C62.6311 77.3664 71.7984 77.3321 72.2445 77.3323C76.9686 77.3342 81.6929 77.3151 86.4167 77.3531C87.2613 77.3599 87.7716 77.14 88.1652 76.35C88.7996 75.0765 89.5929 73.8832 90.2789 72.6339C90.7814 71.719 91.5173 71.4102 92.5757 71.6235Z" fill="#BCA04D"/>
<g clip-path="url(#clip0_12_3)">
<path d="M173.729 90.1085L165.114 84.862C166.204 78.2277 166.146 71.5501 164.945 64.9495L179.736 57.2757C181.114 56.5612 181.709 54.9138 181.103 53.4912L174.109 37.1213C173.5 35.7018 171.904 34.9808 170.418 35.4674L154.584 40.7063C150.641 35.2635 145.845 30.5831 140.286 26.7534L145.283 10.9319C145.749 9.45885 144.997 7.87535 143.555 7.29644L126.958 0.632576C125.512 0.0539626 123.869 0.674471 123.17 2.05523L115.702 16.8871C109.023 15.8043 102.304 15.8634 95.6572 17.0546L87.9326 2.36051C87.2101 0.989998 85.5461 0.397908 84.1213 1.00465L67.6438 7.95269C66.2101 8.5565 65.4876 10.1511 65.9771 11.6171L71.2542 27.3463C65.7734 31.2639 61.0617 36.0285 57.2065 41.5509L41.2795 36.5854C39.7993 36.124 38.2055 36.8705 37.6198 38.3034L30.9118 54.7925C30.3291 56.2249 30.9496 57.862 32.3425 58.5537L47.2729 65.9714C46.1861 72.61 46.2416 79.2874 47.4419 85.8839V92.5713C54.8529 92.5713 43.6767 101.381 42.1186 103.444L27.8305 112.523C28.4395 113.943 23.6621 111.873 29.4597 112.529L27.8305 112.523C34.3532 116.671 39.0133 132.13 34.3532 142.337L47.4419 148.778C47.4419 148.778 45.9545 148.068 55.3544 151.716L85.4296 150.2C85.7968 150.347 86.1755 150.416 86.5486 150.416C87.6471 150.416 88.6962 149.81 89.2176 148.778L94.6899 146.415C95.9729 158.883 107.84 147.613 114.484 146.415L124.455 148.473C125.177 149.844 126.841 150.431 128.266 149.829L143.555 145.971C144.989 145.367 156.161 147.881 155.671 146.415L173.729 138.699C179.208 134.781 175.081 137.42 178.938 131.897L181.103 124.873C190.33 126.462 185.765 113.958 186.348 112.523L171.107 92.5713C175.457 89.8978 175.122 90.8005 173.729 90.1085ZM185.044 105.829L181.103 124.873C181.103 124.873 180.461 129.588 179.736 130.715C175.694 136.993 179.959 133.28 173.729 137.389C172.605 138.128 166.477 139.89 166.903 141.16L141.398 146.415L128.266 147.435L120.038 148.473C120.038 148.473 117.022 149.538 115.702 149.829C108.4 151.427 102.041 147.89 94.6899 146.415C93.3669 146.15 84.5233 147.276 83.9173 148.473H76.4407H57.2065L37.6198 137.389L33.1168 115.831C28.2508 112.668 32.3425 116.512 27.8305 115.831C21.5103 111.819 33.1168 115.831 29.4597 112.529C21.0051 111.572 26.7107 113.381 37.4768 109.819L42.1186 103.444L55.9811 93.7696C55.7268 92.7523 54.0122 88.1503 53.7208 86.8436C52.1123 79.5941 52.0483 72.2119 53.5344 64.9011C53.7995 63.5898 53.1498 62.2632 51.9436 61.6638L37.4768 54.4753L42.1186 43.0606L57.553 47.8732C58.8468 48.2752 60.2338 47.7674 60.9623 46.6416C65.001 40.3629 70.2078 35.0965 76.4407 30.9891C77.5655 30.2482 78.0492 28.8513 77.6236 27.5822L72.5097 12.3396L83.9173 7.53023L91.403 21.77C92.0294 22.9553 93.3816 23.5717 94.6899 23.2925C101.998 21.6938 109.425 21.6296 116.777 23.1059C118.111 23.3851 119.437 22.7256 120.038 21.5274L127.276 7.15465L138.765 11.7669L133.922 27.0991C133.52 28.3758 134.027 29.7636 135.163 30.4846C141.48 34.4963 146.783 39.6701 150.918 45.8605C151.658 46.9744 153.066 47.4522 154.348 47.0338L169.692 41.9573L174.532 53.2893L160.199 60.7252C159.004 61.3445 158.375 62.6837 158.666 63.9906C160.278 71.2468 160.339 78.6294 158.852 85.9307C158.587 87.2435 162.367 84.2629 163.574 84.862L171.107 92.5713L185.044 105.829Z" fill="#BCA04D"/>
<path d="M152.044 77.3943C152.044 79.0458 152.411 80.4474 153.01 81.6505C149.353 81.8555 145.404 82.598 141.621 83.6178C137.437 84.7456 133.351 86.2415 129.945 87.823C126.641 89.3569 123.645 91.1214 121.936 92.9018C117.995 97.0061 115.562 103.568 114.247 109.347C113.575 112.302 113.163 115.198 113.005 117.698C112.944 118.681 112.918 119.651 112.94 120.568C112.063 120.58 111.066 120.566 109.991 120.533C109.126 120.506 108.204 120.467 107.302 120.429C105.833 120.367 104.418 120.307 103.392 120.307C99.2962 120.307 94.9875 117.459 90.2426 113.064C88.51 111.46 86.839 109.769 85.1639 108.073C84.604 107.507 84.0437 106.94 83.4805 106.375C81.3313 104.221 79.1287 102.094 76.9591 100.482L62.5394 87.4327C61.4748 83.6107 60.9052 79.5817 60.9052 75.416C60.9052 50.5993 81.1626 30.4475 106.193 30.4475C131.113 30.4475 152.044 52.4653 152.044 77.3943Z" stroke="#BCA04D" stroke-width="6"/>
</g>
<g clip-path="url(#clip1_12_3)">
<path d="M52.9186 143.982C64.7057 147.529 77.1822 140.827 80.7305 129.039C84.2788 117.25 77.5742 104.776 65.787 101.228C53.9998 97.6802 41.5232 104.382 37.9749 116.171C34.4265 127.96 41.1314 140.434 52.9186 143.982ZM63.7011 109.229C70.8628 111.384 74.9211 118.938 72.7655 126.099C70.6099 133.261 63.0566 137.319 55.8949 135.164C48.7334 133.008 44.6751 125.455 46.8306 118.293C48.9862 111.131 56.5396 107.073 63.7011 109.229Z" fill="#876628"/>
<path d="M28.9311 128.776L15.3557 140.064L19.6183 147.98L36.1446 142.989C38.0299 145.138 40.0716 147.514 42.5257 149.103L40.2224 157.274L41.7222 157.274L57.6352 154.095C60.5615 154.285 63.5279 153.848 66.3203 153.248L68.0484 160.424L69.6179 153.248L80.583 145.87C82.7318 143.985 84.4425 141.731 86.0312 139.277L103.442 140.843L106.03 132.243L91.028 124.158C91.2183 121.231 91.1159 118.366 90.5167 115.574L104.167 104.306L99.9421 96.4011L83.4354 101.398C81.55 99.2494 79.2039 97.92 76.7498 96.3314L78.2178 79.3003L69.6179 76.7118L61.6451 91.3404C58.7188 91.1501 55.9099 91.0644 53.1173 91.6651L41.8791 77.9224L33.9885 82.1007L38.9921 98.5849C36.843 100.472 34.8471 102.603 33.26 105.058L15.5634 103.372L12.9749 111.971L28.2724 120.146C28.0818 123.074 28.3319 125.984 28.9311 128.776ZM66.2757 99.6044C78.959 103.422 86.1713 116.845 82.3537 129.529C78.5361 142.212 65.1132 149.423 52.4299 145.605C39.7466 141.787 32.5344 128.364 36.3519 115.681C40.1695 102.997 53.5924 95.7869 66.2757 99.6044Z" fill="#876628"/>
</g>
<g clip-path="url(#clip2_12_3)">
<path d="M130.919 134.65C142.184 143.394 158.463 141.343 167.208 130.076C175.953 118.809 173.899 102.532 162.633 93.788C151.368 85.0442 135.089 87.0945 126.344 98.3617C117.598 109.629 119.653 125.906 130.919 134.65ZM157.047 101.569C163.892 106.881 165.134 116.737 159.821 123.582C154.509 130.427 144.653 131.669 137.808 126.356C130.964 121.044 129.721 111.188 135.034 104.343C140.346 97.4984 150.202 96.2563 157.047 101.569Z" fill="#856528"/>
<path d="M111.318 108.223L91.9408 114.774L93.2529 125.106L113.198 126.592C114.341 129.7 115.559 133.12 117.55 135.859L117.856 154.014L125.874 161.403L131.806 147.548C134.891 148.972 138.28 149.735 141.549 150.248L152.918 159.441L151.674 161.403L160.04 148.212C163.148 147.068 165.936 145.343 168.676 143.352L186.846 152.295L193.225 144.075L180.373 129.088C181.798 126.003 182.88 122.863 183.395 119.595L202.845 113.097L201.568 102.792L181.642 101.321C180.499 98.2127 178.516 95.7986 176.524 93.0592L185.203 75.2584L176.984 68.8789L162.273 81.3738C159.189 79.9496 156.188 78.6872 152.918 78.1739L146.492 58.6371L136.221 59.8684L134.766 79.7729C131.657 80.918 128.612 82.3909 125.874 84.3837L107.445 75.1917L101.065 83.4112L114.199 98.6182C112.774 101.704 111.833 104.954 111.318 108.223ZM163.838 92.2362C175.96 101.645 178.168 119.16 168.759 131.282C159.35 143.404 141.836 145.61 129.714 136.202C117.592 126.793 115.385 109.278 124.793 97.1556C134.202 85.0335 151.716 82.8277 163.838 92.2362Z" fill="#856528"/>
</g>
<path d="M121.632 267.136L111.794 248.939L121.794 230.439L131.368 248.16L121.632 267.136Z" fill="#BCA04D" stroke="#BCA04D" stroke-linejoin="round"/>
<path d="M162.774 190.069L157.193 179.74L167.193 161.24L172.718 171.448L162.774 190.069Z" fill="#BCA04D" stroke="#BCA04D" stroke-linejoin="round"/>
<path d="M77.1936 198.24L67.1936 179.74L77.1936 161.24L87.1936 179.74L77.1936 198.24Z" fill="#BCA04D" stroke="#BCA04D" stroke-linejoin="round"/>
<path d="M77.8404 243.081L67.9288 224.406L77.2129 207.273L87.2129 225.773L77.8404 243.081Z" fill="#BCA04D" stroke="#BCA04D" stroke-linejoin="round"/>
<path d="M106.469 290.314L97.0732 271.814L106.469 253.314L115.866 271.814L106.469 290.314Z" fill="#BCA04D" stroke="#BCA04D" stroke-linejoin="round"/>
<path d="M107.194 244.24L97.1936 225.74L107.194 207.24L117.194 225.74L107.194 244.24Z" fill="#BCA04D" stroke="#BCA04D" stroke-linejoin="round"/>
<path d="M91.3889 267.627L81.2589 249.387L91.5975 230.25L101.598 248.75L91.3889 267.627Z" fill="#BCA04D" stroke="#BCA04D" stroke-linejoin="round"/>
<path d="M135.518 241.2L127.194 225.74L137.194 207.24L145.389 222.443L135.518 241.2Z" fill="#BCA04D" stroke="#BCA04D" stroke-linejoin="round"/>
<path d="M63.8338 216.696L53.8791 198.122L61.3831 184.239L71.3831 202.739L63.8338 216.696Z" fill="#BCA04D" stroke="#BCA04D" stroke-linejoin="round"/>
<path d="M91.5936 221.239L81.5936 202.739L91.5936 184.239L101.594 202.739L91.5936 221.239Z" fill="#BCA04D" stroke="#BCA04D" stroke-linejoin="round"/>
<path d="M121.794 221.239L111.794 202.739L121.794 184.239L131.794 202.739L121.794 221.239Z" fill="#BCA04D" stroke="#BCA04D" stroke-linejoin="round"/>
<path d="M148.983 215.666L141.994 202.739L151.994 184.239L158.98 197.169L148.983 215.666Z" fill="#BCA04D" stroke="#BCA04D" stroke-linejoin="round"/>
<path d="M50.6115 191.912L40.6936 173.24L47.1936 161.24L57.1936 179.74L50.6115 191.912Z" fill="#BCA04D" stroke="#BCA04D" stroke-linejoin="round"/>
<path d="M107.194 198.24L97.1936 179.74L107.194 161.24L117.194 179.74L107.194 198.24Z" fill="#BCA04D" stroke="#BCA04D" stroke-linejoin="round"/>
<path d="M137.194 198.24L127.194 179.74L137.194 161.24L147.194 179.74L137.194 198.24Z" fill="#BCA04D" stroke="#BCA04D" stroke-linejoin="round"/>
<path d="M61.3936 175.24L51.3936 156.74H61.3936H71.3936L61.3936 175.24Z" fill="#BCA04D" stroke="#BCA04D" stroke-linejoin="round"/>
<path d="M91.5936 175.24L81.5936 156.74H91.5936H101.594L91.5936 175.24Z" fill="#BCA04D" stroke="#BCA04D" stroke-linejoin="round"/>
<path d="M121.794 175.24L111.794 156.74H121.794H131.794L121.794 175.24Z" fill="#BCA04D" stroke="#BCA04D" stroke-linejoin="round"/>
<path d="M151.994 175.24L141.994 156.74H151.994H161.994L151.994 175.24Z" fill="#BCA04D" stroke="#BCA04D" stroke-linejoin="round"/>
<path d="M176.588 165.143L172.193 156.74H180.88L176.588 165.143Z" fill="#BCA04D"/>
<path d="M36.1467 166.073L31.1936 156.74H36.1936H41.1936L36.1467 166.073Z" fill="#BCA04D"/>
<path d="M36.389 166.073L31.6737 156.74H36.4336H41.1936L36.389 166.073Z" fill="#BCA04D"/>
<path d="M106.194 296.24L31.7154 156.74L180.672 156.74L106.194 296.24Z" stroke="#BCA04D" stroke-width="2" stroke-linejoin="round"/>
<rect x="29.1936" y="142.74" width="154" height="14" rx="1" fill="#BCA04D" stroke="#A58C46" stroke-linejoin="round"/>
<path d="M106.194 294.147L93.7357 271.802H118.651L106.194 294.147Z" fill="#BCA04D"/>
<defs>
<clipPath id="clip0_12_3">
<rect width="151" height="150" fill="white" transform="translate(30.6936 0.415985)"/>
</clipPath>
<clipPath id="clip1_12_3">
<rect width="94.9492" height="94.9492" fill="white" transform="translate(27.4115 64.008) rotate(16.7514)"/>
</clipPath>
<clipPath id="clip2_12_3">
<rect width="110" height="110" fill="white" transform="translate(136.645 37.5698) rotate(37.8168)"/>
</clipPath>
</defs>
</svg>
